<svg xmlns="http://www.w3.org/2000/svg" width="512" height="512" viewBox="0 0 512 512" version="1.1">
	<path d="M 231 41.576 C 211.163 45.172, 192.326 53.851, 173.500 68.068 C 158.808 79.163, 158.806 79.164, 146.631 82.396 C 141.203 83.837, 133.702 86.624, 129.961 88.590 C 116.323 95.757, 105.013 108.743, 100.947 121.906 C 98.449 129.995, 98.245 143.998, 100.460 155.500 C 102.915 168.254, 102.676 169.721, 96.095 182.318 C 92.847 188.535, 89.472 196.038, 88.595 198.992 C 86.779 205.109, 86.564 214.393, 88.085 221 C 90.964 233.498, 102.627 248.639, 116.683 258.123 C 124.477 263.383, 126.517 266.242, 129.390 275.932 C 131.415 282.764, 131.463 294.286, 129.489 300.072 C 124.023 316.097, 104.410 326.071, 91.500 319.392 C 83.763 315.390, 81.194 306.775, 84.860 297.127 L 86.719 292.233 83.572 294.090 C 72.966 300.347, 66.524 316.348, 69.035 330.196 C 70.459 338.048, 73.111 343.352, 78.355 348.834 C 85.350 356.148, 95.635 360, 108.169 360 L 112.971 360 110.891 365.250 C 106.744 375.721, 108.285 387.922, 114.838 396.483 C 119.657 402.779, 124.980 406.475, 134.050 409.823 C 138.638 411.516, 141.606 413.193, 141.800 414.202 C 142.005 415.263, 139.484 417.782, 134.609 421.387 C 124.122 429.143, 122.463 432.944, 124.175 445.298 C 125.968 458.234, 125.922 458.186, 139.615 461.307 C 174.892 469.346, 195.645 471.456, 239.500 471.461 C 280.592 471.466, 299.444 470.045, 332.816 464.425 C 366.153 458.811, 376 455.728, 376 450.904 C 376 448.225, 374.883 447.969, 368.022 449.074 C 364.573 449.629, 361.531 449.864, 361.262 449.596 C 360.771 449.104, 364.867 420.059, 365.597 418.855 C 365.812 418.500, 367.724 418.600, 369.845 419.076 C 383.581 422.163, 392.591 430.340, 395.934 442.756 C 396.878 446.261, 397.498 447, 399.491 447 C 403.028 447, 406.872 444.980, 407.580 442.749 C 408.485 439.895, 402.591 428.959, 397.290 423.658 C 391.396 417.764, 383.835 413.850, 371 410.050 C 351.998 404.423, 313.664 388.032, 306.210 382.346 C 300.888 378.287, 297.945 370.773, 297.275 359.527 C 296.594 348.126, 296.665 347.989, 308.470 337.668 C 316.461 330.682, 317.435 330.136, 325.565 328.098 C 345.485 323.101, 355.237 314.022, 353.515 302.074 C 353.153 299.558, 352.633 296.557, 352.359 295.405 C 351.880 293.389, 352.321 293.288, 364.181 292.713 C 378.556 292.015, 390.794 288.902, 401 283.346 C 429.772 267.685, 447.178 239.880, 441.991 217.866 C 440.513 211.595, 437.002 204.211, 434.358 201.817 C 432.559 200.188, 432.511 200.395, 432.834 208.315 C 433.338 220.654, 429.990 228.885, 422.998 232.501 C 417.945 235.114, 415.072 234.433, 410.347 229.502 C 405.244 224.176, 397.003 207.700, 394.340 197.500 C 391.625 187.097, 391.892 160.181, 394.846 146.591 C 399.558 124.912, 396.469 109.352, 384.545 94.715 C 375.353 83.431, 360.997 75.638, 343.905 72.655 C 335.868 71.252, 334.578 70.659, 323.907 63.472 C 305.084 50.794, 290.920 44.740, 272.615 41.548 C 261.846 39.670, 241.437 39.684, 231 41.576 M 236.655 54.527 C 218.956 57.882, 203.822 64.776, 187.504 76.919 C 174.835 86.346, 158.402 102.220, 150.877 112.300 C 136.332 131.784, 131.554 153.224, 137.968 170.231 C 139.982 175.572, 143.031 179.822, 141.589 175.280 C 139.810 169.674, 146.622 146, 150.015 146 C 150.631 146, 150.908 146.787, 150.632 147.750 C 149.029 153.323, 147.801 165.993, 148.197 172.849 C 148.659 180.817, 151.257 187.989, 155.785 193.793 C 157.531 196.032, 157.565 195.849, 157.173 186.109 C 156.750 175.555, 158.310 167.892, 161.834 163.220 C 163.482 161.035, 163.549 161.465, 163.525 174.223 C 163.503 186.065, 163.755 188.064, 165.860 192.719 C 169.267 200.255, 170.667 201.046, 170.752 195.482 C 170.855 188.607, 175.881 178.887, 182.863 172.055 C 194.199 160.963, 210.283 152.766, 231.286 147.377 L 242.500 144.500 231.750 144.216 C 225.838 144.060, 221 143.580, 221 143.150 C 221 142.719, 223.837 141.803, 227.303 141.114 C 235.718 139.441, 237.872 138.035, 232.050 138.015 C 225.180 137.992, 228.341 136.513, 240.500 134.063 C 267.308 128.661, 285.151 119.130, 292.759 106.148 C 299.827 94.088, 293.503 80.965, 278.438 76.431 C 273.176 74.848, 259.578 74.565, 253.750 75.919 C 248.211 77.205, 249.194 75.632, 255.750 72.716 C 271.117 65.882, 285.616 66.909, 298 75.709 L 300.500 77.485 297.909 73.993 C 296.485 72.072, 293.212 68.925, 290.637 67 C 286.356 63.799, 286.159 63.474, 288.330 63.198 C 289.636 63.032, 293.049 63.787, 295.914 64.875 C 300.013 66.433, 300.857 66.533, 299.870 65.343 C 297.825 62.879, 285.487 57.096, 278.754 55.446 C 269.586 53.199, 246.338 52.692, 236.655 54.527 M 315.683 81.272 C 318.436 94.117, 314.979 104.101, 303.762 115.694 C 296.190 123.521, 291.866 126.229, 281.024 129.938 C 271.342 133.251, 270.741 133.920, 278.004 133.303 C 282.227 132.945, 284.150 133.092, 283.500 133.725 C 282.124 135.065, 274.525 138, 268.500 139.519 L 263.500 140.779 268.500 140.872 C 278.853 141.065, 294.562 136.224, 299.035 131.462 C 300.708 129.682, 301.120 128.351, 300.681 126.155 C 300.029 122.894, 301.260 121.377, 306.864 118.536 C 312.356 115.752, 319.139 108.850, 321.642 103.500 C 326.199 93.757, 323.819 82.424, 315.924 76.272 C 314.496 75.159, 314.473 75.629, 315.683 81.272 M 129.360 112.322 C 117.006 121.433, 111.675 130.621, 111.566 142.992 C 111.496 150.911, 113.809 168.893, 115.087 170.370 C 116.454 171.950, 118.040 163.698, 119.002 150 C 120.377 130.426, 122.519 124.251, 131.749 113.250 C 134.172 110.362, 135.944 108, 135.687 108 C 135.430 108, 132.583 109.945, 129.360 112.322 M 363.628 119.608 C 373.805 129.555, 376 133.892, 376 144.052 C 376 155.184, 371.333 163.135, 358.417 174.012 C 347.736 183.007, 345.600 187.752, 347.641 197.956 C 348.333 201.413, 349.956 200.340, 349.985 196.407 C 350.019 191.762, 354.568 185.771, 363.460 178.663 C 378.768 166.425, 383.685 157.517, 382.787 143.649 C 381.974 131.090, 376.543 122.510, 365 115.550 C 354.412 109.166, 354.047 110.244, 363.628 119.608 M 335.562 120.750 C 334.321 127.800, 331.968 133.614, 328.963 137.057 L 325.959 140.500 326.515 135.500 L 327.070 130.500 325.285 132.964 C 318.621 142.163, 315.623 145.649, 310.877 149.714 L 305.500 154.321 310.201 153.686 C 312.787 153.337, 317.259 151.915, 320.139 150.526 C 323.018 149.137, 325.553 148, 325.770 148 C 327.223 148, 324.479 150.609, 318 155.388 C 305.256 164.789, 287.324 172.736, 266.928 178.021 L 259.500 179.946 268.500 179.447 C 291.099 178.194, 311.393 169.997, 326.172 156.154 C 336.802 146.197, 341.406 134.089, 338.989 122.448 C 337.667 116.080, 336.488 115.495, 335.562 120.750 M 292.824 139.030 C 290.802 140.098, 285.402 142.064, 280.824 143.398 C 272.012 145.965, 271.825 147.853, 280.512 146.550 C 282.981 146.180, 285 146.113, 285 146.401 C 285 147.573, 269.798 154.129, 263.445 155.697 C 255.326 157.701, 256.262 158.450, 265.360 157.231 C 268.956 156.750, 271.679 156.710, 271.412 157.143 C 270.987 157.830, 256.051 162.928, 250.500 164.281 C 248.573 164.750, 248.576 164.772, 250.590 164.884 C 254.770 165.116, 268.694 160.862, 276.652 156.922 C 284.627 152.974, 293.828 144.930, 296.867 139.250 C 298.321 136.532, 297.625 136.494, 292.824 139.030 M 224.500 156.117 C 208.035 162.032, 202.938 164.240, 197.203 167.948 C 184.814 175.955, 179.710 183.417, 180.202 192.805 C 180.495 198.405, 180.553 198.505, 183.691 198.809 C 185.814 199.014, 189.545 197.843, 194.835 195.309 C 202.731 191.527, 202.774 191.519, 200.875 194.181 C 196.696 200.037, 187.553 205.811, 176.500 209.572 C 167.108 212.768, 153.782 213.259, 145.750 210.706 C 143.137 209.875, 141 209.370, 141 209.583 C 141 209.797, 143.813 211.433, 147.250 213.219 C 153.206 216.315, 154.017 216.466, 164.500 216.442 C 173.332 216.422, 176.675 215.982, 181.461 214.210 C 188.957 211.435, 196.852 206.225, 204.257 199.168 C 207.424 196.150, 210.309 193.976, 210.669 194.336 C 212.089 195.756, 208.332 203.581, 204.036 208.152 C 193.811 219.032, 178.633 224.953, 158.939 225.746 C 145.217 226.299, 138.542 225.076, 130.250 220.491 C 127.912 219.198, 126 218.471, 126 218.874 C 126 220.629, 132.987 226.119, 138.500 228.696 C 144.040 231.285, 145.382 231.492, 156 231.400 C 169.384 231.283, 180.835 228.385, 192.236 222.231 C 200.195 217.934, 209.135 209.419, 212.085 203.325 C 213.977 199.416, 214.121 197.937, 213.504 188.737 C 212.901 179.755, 213.072 177.823, 214.896 172.974 C 217.084 167.162, 223 160.579, 230.482 155.633 C 235.358 152.409, 234.666 152.465, 224.500 156.117 M 327.748 168.916 C 321.846 174.099, 307.174 182.789, 299.155 185.852 C 286.685 190.616, 277.808 192.252, 264.500 192.237 C 252.623 192.224, 250.017 191.725, 233.814 186.359 C 232.489 185.920, 231.989 186.624, 231.479 189.650 C 231.123 191.768, 230.005 196.638, 228.995 200.474 C 227.985 204.310, 227.379 207.804, 227.647 208.238 C 227.916 208.673, 229.823 209.890, 231.886 210.942 C 236.140 213.112, 243 220.248, 243 222.503 C 243 224.540, 242.994 224.538, 233.512 219.949 C 228.908 217.720, 223.595 215.646, 221.705 215.340 C 218.372 214.799, 218.173 214.957, 215.134 220.569 C 213.410 223.751, 212 226.725, 212 227.178 C 212 227.630, 213.493 228, 215.318 228 C 227.568 228, 239.016 237.051, 238.994 246.718 C 238.987 249.440, 238.899 249.398, 234.916 244.750 C 232.676 242.138, 230.479 240, 230.033 240 C 229.587 240, 228.924 241.688, 228.559 243.750 C 228.194 245.813, 226.752 249.879, 225.356 252.787 C 223.358 256.948, 223.068 258.377, 223.996 259.495 C 224.996 260.701, 223.910 260.961, 216.838 261.208 C 209.611 261.461, 208.519 261.733, 208.639 263.250 C 208.715 264.212, 208.265 264.990, 207.639 264.978 C 205.665 264.940, 197.695 261.005, 194.213 258.349 C 192.373 256.946, 190.729 255.956, 190.557 256.149 C 190.386 256.342, 189.231 258.511, 187.991 260.969 C 186.750 263.427, 184.828 266.666, 183.720 268.165 C 181.941 270.571, 181.782 271.812, 182.370 278.696 C 183.978 297.500, 188.352 308.998, 197.439 318.306 C 211.737 332.950, 240.147 351.907, 256.381 357.634 C 259.957 358.896, 260.698 358.840, 264.440 357.029 C 271.595 353.565, 289.494 340.855, 301.018 331.053 C 317.547 316.996, 324.496 306.706, 330.820 286.924 C 334.863 274.277, 336.168 266.251, 335.802 256.290 L 335.500 248.081 330.232 252.189 C 324.738 256.475, 322.657 256.756, 325.398 252.842 C 327.654 249.621, 327.427 243.813, 324.920 240.625 C 322.336 237.340, 321 238.042, 321 242.684 C 321 244.645, 319.778 248.974, 318.284 252.303 C 316.364 256.579, 315.924 258.475, 316.784 258.761 C 317.453 258.984, 318 259.467, 317.999 259.833 C 317.997 260.982, 307.637 260.973, 304.712 259.823 C 301.241 258.457, 297.023 251.460, 296.930 246.912 C 296.891 245.035, 296.526 242.650, 296.118 241.610 C 295.457 239.928, 295.027 240.144, 292.188 243.588 L 289 247.456 289 244.678 C 289 233.472, 304.754 224.535, 319.762 227.227 C 325.953 228.337, 326.059 228.318, 329.002 225.498 C 332.504 222.143, 333.767 222.734, 332.034 226.917 C 330.230 231.273, 331.076 232.515, 334.182 230.072 C 339.305 226.042, 339.821 227.468, 336.328 235.997 L 334.896 239.493 338.340 236.155 C 342.339 232.279, 345.255 224.192, 345.182 217.179 C 345.152 214.301, 343.182 206.738, 340.063 197.525 C 337.274 189.289, 334.313 178.971, 333.483 174.595 C 332.653 170.220, 331.802 166.469, 331.592 166.259 C 331.382 166.049, 329.652 167.244, 327.748 168.916 M 105.747 192.750 C 97.828 207.384, 98.629 219.674, 108.214 230.591 C 114.971 238.287, 125.564 242.783, 139.093 243.696 C 149.553 244.402, 154.890 242.631, 145.004 241.734 C 132.228 240.576, 117.979 230.232, 111.488 217.404 C 108.675 211.845, 108.500 210.813, 108.502 199.750 C 108.503 193.287, 108.462 188, 108.411 188 C 108.360 188, 107.161 190.137, 105.747 192.750 M 315 204.044 C 304.656 206.158, 293.881 213.188, 291.694 219.250 C 290.807 221.710, 291.413 221.541, 301.320 216.565 C 315.570 209.409, 324.531 208.358, 336.500 212.438 C 340.350 213.751, 343.709 214.618, 343.965 214.365 C 346.283 212.067, 332.283 204.319, 324.500 203.592 C 321.750 203.335, 317.475 203.539, 315 204.044 M 308.750 237.080 C 307.788 237.641, 307 239.202, 307 240.550 C 307 241.897, 306.090 243.910, 304.977 245.023 C 303.349 246.651, 303.166 247.441, 304.039 249.072 C 306.720 254.082, 314.323 253.768, 316.868 248.543 C 319.185 243.787, 315.671 235.868, 311.316 236.030 C 310.867 236.047, 309.712 236.519, 308.750 237.080 M 215.073 241.728 C 213.383 243.778, 212 246.175, 212 247.054 C 212 249.303, 216.213 253, 218.775 253 C 224.103 253, 227.275 243.369, 223.171 239.655 C 220.392 237.140, 218.444 237.638, 215.073 241.728 M 425.286 240.696 C 414.880 245.493, 401.254 245.988, 390.639 241.955 C 387.878 240.906, 385.472 240.195, 385.291 240.375 C 384.740 240.927, 392.260 245.803, 396.500 247.643 C 402.621 250.299, 415.222 250.089, 421.060 247.235 C 425.337 245.144, 431.872 239.463, 430.927 238.656 C 430.692 238.456, 428.154 239.374, 425.286 240.696 M 201.617 245.741 C 198.756 252.085, 199.928 254.106, 207.854 256.492 L 210.208 257.201 208.045 254.275 C 206.855 252.666, 205.329 249.184, 204.654 246.538 L 203.427 241.726 201.617 245.741 M 374.018 269.351 C 381.415 274.346, 390.024 275.167, 398.097 271.647 C 401.426 270.195, 401.294 270.161, 392 270.070 C 386.775 270.018, 380.025 269.312, 377 268.500 C 369.906 266.596, 369.928 266.589, 374.018 269.351 M 168.727 287.701 C 168.479 288.141, 167.959 289.850, 167.571 291.500 C 165.773 299.138, 161.076 301.064, 154.366 296.917 C 152.513 295.772, 150.447 295.018, 149.777 295.241 C 148.047 295.818, 153.234 300.782, 157.374 302.512 C 164.366 305.433, 172 300.462, 172 292.988 C 172 289.515, 169.753 285.885, 168.727 287.701 M 231 309.180 C 231 312.106, 243.851 322.626, 252.134 326.483 C 259.055 329.704, 267.543 329.884, 273.630 326.937 C 278.364 324.645, 292 311.503, 292 309.232 C 292 308.213, 291.307 307.957, 289.665 308.369 C 288.380 308.692, 283.993 309.258, 279.915 309.628 C 275.837 309.998, 270.806 310.891, 268.736 311.611 C 265.840 312.619, 263.075 312.690, 256.736 311.920 C 245.036 310.498, 235.866 309.121, 233.250 308.393 C 231.682 307.957, 231 308.195, 231 309.180 M 271.500 317 C 269.850 317.420, 265.575 317.848, 262 317.952 C 254.806 318.161, 256.157 319.803, 263.628 319.930 C 267.367 319.993, 275 317.682, 275 316.487 C 275 316.219, 274.887 316.053, 274.750 316.118 C 274.613 316.183, 273.150 316.580, 271.500 317 M 126 329.554 C 107.709 336.691, 92.361 336.626, 82.250 329.371 C 79.380 327.311, 79.381 328.769, 82.251 333.102 C 88.655 342.767, 108.378 344.798, 123.286 337.328 C 128.201 334.865, 136 328.458, 136 326.884 C 136 325.687, 135.718 325.763, 126 329.554 M 172 340.644 C 170.075 341.982, 164.758 345.124, 160.184 347.627 C 144.461 356.229, 140.571 361.547, 140.527 374.500 C 140.495 384.089, 142.472 388.880, 148.161 393.001 C 152.879 396.419, 159.357 397.483, 166.466 396.007 C 171.384 394.986, 177.004 391.875, 176.997 390.177 C 176.996 389.805, 174.371 389.425, 171.163 389.333 C 164.189 389.133, 159.649 387.386, 154.618 382.970 C 147.309 376.552, 145.035 367.735, 149.009 361.217 C 150.197 359.268, 154.971 355.351, 160.755 351.579 C 169.778 345.695, 176.939 339.576, 175.927 338.616 C 175.692 338.393, 173.925 339.305, 172 340.644 M 137.500 350.877 C 126.277 360.252, 125.649 361.149, 125.182 368.477 C 124.918 372.626, 125.318 376.484, 126.314 379.408 C 127.870 383.976, 133.504 393.001, 134.798 392.999 C 135.184 392.999, 135.531 388.161, 135.570 382.249 C 135.635 372.150, 135.918 370.699, 140.240 358.250 C 142.771 350.962, 144.765 345.007, 144.671 345.015 C 144.577 345.023, 141.350 347.661, 137.500 350.877 M 216.714 353.669 C 217.146 357.426, 217.500 366.641, 217.500 374.147 C 217.500 389.901, 217.008 391.014, 209.188 392.961 C 206.610 393.603, 198.425 397.440, 191 401.489 C 183.575 405.538, 174.012 410.494, 169.750 412.503 C 165.488 414.512, 162 416.523, 162 416.971 C 162 418.260, 163.793 418.704, 184.224 422.475 C 221.241 429.308, 227.734 431.193, 234.404 437.050 C 238.116 440.309, 241.604 445.729, 240.622 446.711 C 240.333 447, 236.137 445.644, 231.298 443.698 C 216.712 437.830, 202.973 434.681, 169.500 429.533 C 160.150 428.095, 151.738 426.690, 150.807 426.410 C 146.893 425.234, 132.590 442.706, 133.202 447.918 C 133.470 450.205, 134.258 450.639, 141 452.213 C 150 454.315, 177.879 458.475, 194.500 460.196 C 210.926 461.898, 273.760 461.893, 290 460.188 C 309.951 458.094, 346.163 453.008, 347.851 452.063 C 348.962 451.442, 350.011 447.014, 351.575 436.349 C 352.773 428.182, 353.441 421.154, 353.059 420.732 C 352.676 420.309, 347.894 421.352, 342.432 423.048 C 336.969 424.744, 321.700 428.788, 308.499 432.034 C 282.429 438.445, 276.488 440.274, 267.778 444.568 C 264.631 446.120, 261.806 447.139, 261.500 446.833 C 260.541 445.875, 262.739 441.367, 265.945 437.716 C 270.614 432.397, 275.997 430.415, 303.354 423.939 C 333.471 416.810, 344 413.717, 344 411.997 C 344 411.579, 340.063 409.559, 335.250 407.507 C 323.001 402.285, 298.911 390.230, 296.662 388.196 C 292.474 384.409, 289.616 376.246, 287.992 363.435 C 287.451 359.167, 286.785 355.451, 286.512 355.179 C 286.239 354.906, 281.338 357.896, 275.621 361.823 C 261.312 371.652, 261.497 371.603, 252.201 368.012 C 243.953 364.826, 231.625 357.957, 223.500 352.022 C 215.404 346.108, 215.832 346.004, 216.714 353.669 M 178.252 360.516 C 173.145 364.888, 171.379 369.588, 172.999 374.497 C 174.502 379.050, 177.429 381, 182.762 381 C 188.146 381, 193.719 378.223, 197.906 373.454 C 201.920 368.883, 201.202 367.846, 196.504 371.429 C 191.988 374.874, 184.673 377.386, 181.488 376.586 C 178.020 375.716, 175.671 371.775, 176.465 368.158 C 176.818 366.550, 178.693 363.382, 180.632 361.117 C 184.949 356.074, 183.786 355.780, 178.252 360.516" stroke="none" fill="black" fill-rule="evenodd"/>
</svg>